<svg width="1682" height="367" viewBox="0 0 1682 367" fill="none" xmlns="http://www.w3.org/2000/svg">
<g clip-path="url(#clip0_2_17)">
<path d="M250.388 304L229.856 234.748H144.596L124.064 304H93.788L168.26 61.096H206.888L281.36 304H250.388ZM188.792 92.068H185.66L151.556 209.344H222.896L188.792 92.068ZM395.368 308.176C373.56 308.176 355.696 304.232 341.776 296.344C327.856 288.224 316.372 277.9 307.324 265.372L328.552 247.972C338.064 259.804 348.04 268.62 358.48 274.42C369.152 280.22 381.796 283.12 396.412 283.12C414.044 283.12 427.5 279.06 436.78 270.94C446.06 262.82 450.7 251.452 450.7 236.836C450.7 225.004 447.336 215.84 440.608 209.344C433.88 202.616 422.164 197.86 405.46 195.076L378.316 190.552C366.484 188.464 356.508 185.332 348.388 181.156C340.5 176.98 334.12 171.992 329.248 166.192C324.376 160.16 320.896 153.664 318.808 146.704C316.72 139.512 315.676 132.088 315.676 124.432C315.676 102.16 322.984 85.34 337.6 73.972C352.216 62.604 371.936 56.92 396.76 56.92C416.248 56.92 432.604 60.168 445.828 66.664C459.284 73.16 470.072 82.324 478.192 94.156L457.66 111.904C450.932 103.088 442.812 95.896 433.3 90.328C423.788 84.76 411.492 81.976 396.412 81.976C379.94 81.976 367.296 85.456 358.48 92.416C349.664 99.376 345.256 109.816 345.256 123.736C345.256 134.64 348.504 143.572 355 150.532C361.728 157.26 373.676 162.132 390.844 165.148L416.944 169.672C428.776 171.76 438.752 174.892 446.872 179.068C454.992 183.244 461.488 188.232 466.36 194.032C471.464 199.832 475.06 206.328 477.148 213.52C479.236 220.712 480.28 228.252 480.28 236.14C480.28 258.644 472.856 276.276 458.008 289.036C443.392 301.796 422.512 308.176 395.368 308.176ZM604.728 308.176C589.88 308.176 577.12 305.392 566.448 299.824C555.776 294.024 546.96 285.788 540 275.116C533.04 264.444 527.936 251.336 524.688 235.792C521.44 220.248 519.816 202.5 519.816 182.548C519.816 162.828 521.44 145.196 524.688 129.652C527.936 113.876 533.04 100.652 540 89.98C546.96 79.308 555.776 71.188 566.448 65.62C577.12 59.82 589.88 56.92 604.728 56.92C619.576 56.92 632.336 59.82 643.008 65.62C653.68 71.188 662.496 79.308 669.456 89.98C676.416 100.652 681.52 113.876 684.768 129.652C688.016 145.196 689.64 162.828 689.64 182.548C689.64 202.5 688.016 220.248 684.768 235.792C681.52 251.336 676.416 264.444 669.456 275.116C662.496 285.788 653.68 294.024 643.008 299.824C632.336 305.392 619.576 308.176 604.728 308.176ZM604.728 282.772C614.472 282.772 622.708 280.916 629.436 277.204C636.164 273.26 641.732 267.808 646.14 260.848C650.548 253.888 653.68 245.536 655.536 235.792C657.624 225.816 658.668 214.68 658.668 202.384V162.712C658.668 150.648 657.624 139.628 655.536 129.652C653.68 119.676 650.548 111.208 646.14 104.248C641.732 97.288 636.164 91.952 629.436 88.24C622.708 84.296 614.472 82.324 604.728 82.324C594.984 82.324 586.748 84.296 580.02 88.24C573.292 91.952 567.724 97.288 563.316 104.248C558.908 111.208 555.66 119.676 553.572 129.652C551.716 139.628 550.788 150.648 550.788 162.712V202.384C550.788 214.68 551.716 225.816 553.572 235.792C555.66 245.536 558.908 253.888 563.316 260.848C567.724 267.808 573.292 273.26 580.02 277.204C586.748 280.916 594.984 282.772 604.728 282.772Z" fill="#F97316"/>
<path d="M800.168 282.424V209.692H730.568V186.028H800.168V113.296H826.616V186.028H896.216V209.692H826.616V282.424H800.168ZM1008.83 282.424V209.692H939.232V186.028H1008.83V113.296H1035.28V186.028H1104.88V209.692H1035.28V282.424H1008.83Z" fill="white"/>
</g>
<defs>
<clipPath id="clip0_2_17">
<rect width="1682" height="367" fill="white"/>
</clipPath>
</defs>
</svg>
